<svg xmlns="http://www.w3.org/2000/svg" width="100" height="100" viewBox="0 0 100 100"><g><g><g/><g><path fill="#600e09" d="M43.77 59.365l16.264-9.368L43.77 40.63z"/></g><g><path fill="#600e09" d="M100 50c0 27.61-22.39 50-50 50S0 77.61 0 50 22.39 0 50 0s50 22.39 50 50zM79.956 34.97a7.83 7.83 0 0 0-5.508-5.507C69.558 28.125 50 28.125 50 28.125s-19.559 0-24.448 1.287c-2.626.72-4.788 2.882-5.508 5.559C18.757 39.86 18.757 50 18.757 50s0 10.191 1.287 15.03a7.83 7.83 0 0 0 5.508 5.507C30.492 71.875 50 71.875 50 71.875s19.559 0 24.448-1.287a7.83 7.83 0 0 0 5.508-5.507c1.286-4.89 1.286-15.03 1.286-15.03s.052-10.19-1.286-15.08z"/></g></g></g></svg>